HIERARCHY
ROOT Hips
{
  OFFSET -99.1329 94.8849 -31.3034
  CHANNELS 6 Xposition Yposition Zposition Zrotation Xrotation Yrotation
  JOINT Spine
  {
    OFFSET 0 7.29544 0
    CHANNELS 6 Xposition Yposition Zposition Zrotation Xrotation Yrotation
    JOINT Spine1
    {
      OFFSET 0 7.29544 0
      CHANNELS 6 Xposition Yposition Zposition Zrotation Xrotation Yrotation
      JOINT Spine2
      {
        OFFSET 0 7.29544 0
        CHANNELS 6 Xposition Yposition Zposition Zrotation Xrotation Yrotation
        JOINT Spine3
        {
          OFFSET 0 7.29544 0
          CHANNELS 6 Xposition Yposition Zposition Zrotation Xrotation Yrotation
          JOINT Neck
          {
            OFFSET 0 15.5028 0
            CHANNELS 6 Xposition Yposition Zposition Zrotation Xrotation Yrotation
            JOINT Head
            {
              OFFSET 0 9.84884 0
              CHANNELS 6 Xposition Yposition Zposition Zrotation Xrotation Yrotation
              End Site
              {
                OFFSET 0 18.4666 0
              }
            }
          }
          JOINT LeftShoulder
          {
            OFFSET 5 17 0
            CHANNELS 6 Xposition Yposition Zposition Zrotation Xrotation Yrotation
            JOINT LeftShoulder2
            {
              OFFSET 6.75 0 0
              CHANNELS 6 Xposition Yposition Zposition Zrotation Xrotation Yrotation
              JOINT LeftArm
              {
                OFFSET 6.75 0 0
                CHANNELS 6 Xposition Yposition Zposition Zrotation Xrotation Yrotation
                JOINT LeftForeArm
                {
                  OFFSET 0 -31.2558 -2
                  CHANNELS 6 Xposition Yposition Zposition Zrotation Xrotation Yrotation
                  JOINT LeftHand
                  {
                    OFFSET 0 -24.7442 2
                    CHANNELS 6 Xposition Yposition Zposition Zrotation Xrotation Yrotation
                    JOINT LeftHandThumb1
                    {
                      OFFSET -0.5 -1.5 2.65
                      CHANNELS 6 Xposition Yposition Zposition Zrotation Xrotation Yrotation
                      JOINT LeftHandThumb2
                      {
                        OFFSET 0 -3.8 3.7
                        CHANNELS 6 Xposition Yposition Zposition Zrotation Xrotation Yrotation
                        JOINT LeftHandThumb3
                        {
                          OFFSET 0 -3 2.7
                          CHANNELS 6 Xposition Yposition Zposition Zrotation Xrotation Yrotation
                          End Site
                          {
                            OFFSET 0 -2.3 1.8
                          }
                        }
                      }
                    }
                    JOINT LeftHandIndex
                    {
                      OFFSET 0 -1.9 1.6
                      CHANNELS 6 Xposition Yposition Zposition Zrotation Xrotation Yrotation
                      JOINT LeftHandIndex1
                      {
                        OFFSET 0 -8.3 1.9
                        CHANNELS 6 Xposition Yposition Zposition Zrotation Xrotation Yrotation
                        JOINT LeftHandIndex2
                        {
                          OFFSET 0 -4.5 0
                          CHANNELS 6 Xposition Yposition Zposition Zrotation Xrotation Yrotation
                          JOINT LeftHandIndex3
                          {
                            OFFSET 0 -3.4 0
                            CHANNELS 6 Xposition Yposition Zposition Zrotation Xrotation Yrotation
                            End Site
                            {
                              OFFSET 0 -2.6 0
                            }
                          }
                        }
                      }
                    }
                    JOINT LeftHandMiddle
                    {
                      OFFSET -0.25 -2.2 0.4
                      CHANNELS 6 Xposition Yposition Zposition Zrotation Xrotation Yrotation
                      JOINT LeftHandMiddle1
                      {
                        OFFSET 0 -8.3 1
                        CHANNELS 6 Xposition Yposition Zposition Zrotation Xrotation Yrotation
                        JOINT LeftHandMiddle2
                        {
                          OFFSET 0 -4.65 0
                          CHANNELS 6 Xposition Yposition Zposition Zrotation Xrotation Yrotation
                          JOINT LeftHandMiddle3
                          {
                            OFFSET 0 -3.3 0
                            CHANNELS 6 Xposition Yposition Zposition Zrotation Xrotation Yrotation
                            End Site
                            {
                              OFFSET 0 -2.7 0
                            }
                          }
                        }
                      }
                    }
                    JOINT LeftHandRing
                    {
                      OFFSET -0.5 -2.15 -0.8
                      CHANNELS 6 Xposition Yposition Zposition Zrotation Xrotation Yrotation
                      JOINT LeftHandRing1
                      {
                        OFFSET 0 -7.75 -0.2
                        CHANNELS 6 Xposition Yposition Zposition Zrotation Xrotation Yrotation
                        JOINT LeftHandRing2
                        {
                          OFFSET 0 -3.8 0
                          CHANNELS 6 Xposition Yposition Zposition Zrotation Xrotation Yrotation
                          JOINT LeftHandRing3
                          {
                            OFFSET 0 -3.4 0
                            CHANNELS 6 Xposition Yposition Zposition Zrotation Xrotation Yrotation
                            End Site
                            {
                              OFFSET 0 -2.6 0
                            }
                          }
                        }
                      }
                    }
                    JOINT LeftHandPinky
                    {
                      OFFSET -0.75 -1.75 -1.85
                      CHANNELS 6 Xposition Yposition Zposition Zrotation Xrotation Yrotation
                      JOINT LeftHandPinky1
                      {
                        OFFSET 0 -7.15 -1
                        CHANNELS 6 Xposition Yposition Zposition Zrotation Xrotation Yrotation
                        JOINT LeftHandPinky2
                        {
                          OFFSET 0 -3 0
                          CHANNELS 6 Xposition Yposition Zposition Zrotation Xrotation Yrotation
                          JOINT LeftHandPinky3
                          {
                            OFFSET 0 -2.35 0
                            CHANNELS 6 Xposition Yposition Zposition Zrotation Xrotation Yrotation
                            End Site
                            {
                              OFFSET 0 -2.1 0
                            }
                          }
                        }
                      }
                    }
                  }
                }
              }
            }
          }
          JOINT RightShoulder
          {
            OFFSET -5 17 0
            CHANNELS 6 Xposition Yposition Zposition Zrotation Xrotation Yrotation
            JOINT RightShoulder2
            {
              OFFSET -6.75 0 0
              CHANNELS 6 Xposition Yposition Zposition Zrotation Xrotation Yrotation
              JOINT RightArm
              {
                OFFSET -6.75 0 0
                CHANNELS 6 Xposition Yposition Zposition Zrotation Xrotation Yrotation
                JOINT RightForeArm
                {
                  OFFSET 0 -31.2558 -2
                  CHANNELS 6 Xposition Yposition Zposition Zrotation Xrotation Yrotation
                  JOINT RightHand
                  {
                    OFFSET 0 -24.7442 2
                    CHANNELS 6 Xposition Yposition Zposition Zrotation Xrotation Yrotation
                    JOINT RightHandThumb1
                    {
                      OFFSET 0.5 -1.5 2.65
                      CHANNELS 6 Xposition Yposition Zposition Zrotation Xrotation Yrotation
                      JOINT RightHandThumb2
                      {
                        OFFSET 0 -3.8 3.7
                        CHANNELS 6 Xposition Yposition Zposition Zrotation Xrotation Yrotation
                        JOINT RightHandThumb3
                        {
                          OFFSET 0 -3 2.7
                          CHANNELS 6 Xposition Yposition Zposition Zrotation Xrotation Yrotation
                          End Site
                          {
                            OFFSET 0 -2.3 1.8
                          }
                        }
                      }
                    }
                    JOINT RightHandIndex
                    {
                      OFFSET 0 -1.9 1.6
                      CHANNELS 6 Xposition Yposition Zposition Zrotation Xrotation Yrotation
                      JOINT RightHandIndex1
                      {
                        OFFSET 0 -8.3 1.9
                        CHANNELS 6 Xposition Yposition Zposition Zrotation Xrotation Yrotation
                        JOINT RightHandIndex2
                        {
                          OFFSET 0 -4.5 0
                          CHANNELS 6 Xposition Yposition Zposition Zrotation Xrotation Yrotation
                          JOINT RightHandIndex3
                          {
                            OFFSET 0 -3.4 0
                            CHANNELS 6 Xposition Yposition Zposition Zrotation Xrotation Yrotation
                            End Site
                            {
                              OFFSET 0 -2.6 0
                            }
                          }
                        }
                      }
                    }
                    JOINT RightHandMiddle
                    {
                      OFFSET 0.25 -2.2 0.4
                      CHANNELS 6 Xposition Yposition Zposition Zrotation Xrotation Yrotation
                      JOINT RightHandMiddle1
                      {
                        OFFSET 0 -8.3 1
                        CHANNELS 6 Xposition Yposition Zposition Zrotation Xrotation Yrotation
                        JOINT RightHandMiddle2
                        {
                          OFFSET 0 -4.65 0
                          CHANNELS 6 Xposition Yposition Zposition Zrotation Xrotation Yrotation
                          JOINT RightHandMiddle3
                          {
                            OFFSET 0 -3.3 0
                            CHANNELS 6 Xposition Yposition Zposition Zrotation Xrotation Yrotation
                            End Site
                            {
                              OFFSET 0 -2.7 0
                            }
                          }
                        }
                      }
                    }
                    JOINT RightHandRing
                    {
                      OFFSET 0.5 -2.15 -0.8
                      CHANNELS 6 Xposition Yposition Zposition Zrotation Xrotation Yrotation
                      JOINT RightHandRing1
                      {
                        OFFSET 0 -7.75 -0.2
                        CHANNELS 6 Xposition Yposition Zposition Zrotation Xrotation Yrotation
                        JOINT RightHandRing2
                        {
                          OFFSET 0 -3.8 0
                          CHANNELS 6 Xposition Yposition Zposition Zrotation Xrotation Yrotation
                          JOINT RightHandRing3
                          {
                            OFFSET 0 -3.4 0
                            CHANNELS 6 Xposition Yposition Zposition Zrotation Xrotation Yrotation
                            End Site
                            {
                              OFFSET 0 -2.6 0
                            }
                          }
                        }
                      }
                    }
                    JOINT RightHandPinky
                    {
                      OFFSET 0.75 -1.75 -1.85
                      CHANNELS 6 Xposition Yposition Zposition Zrotation Xrotation Yrotation
                      JOINT RightHandPinky1
                      {
                        OFFSET 0 -7.15 -1
                        CHANNELS 6 Xposition Yposition Zposition Zrotation Xrotation Yrotation
                        JOINT RightHandPinky2
                        {
                          OFFSET 0 -3 0
                          CHANNELS 6 Xposition Yposition Zposition Zrotation Xrotation Yrotation
                          JOINT RightHandPinky3
                          {
                            OFFSET 0 -2.35 0
                            CHANNELS 6 Xposition Yposition Zposition Zrotation Xrotation Yrotation
                            End Site
                            {
                              OFFSET 0 -2.1 0
                            }
                          }
                        }
                      }
                    }
                  }
                }
              }
            }
          }
        }
      }
    }
  }
  JOINT LeftUpLeg
  {
    OFFSET 14 0 0
    CHANNELS 6 Xposition Yposition Zposition Zrotation Xrotation Yrotation
    JOINT LeftLeg
    {
      OFFSET 0 -45.7849 -1
      CHANNELS 6 Xposition Yposition Zposition Zrotation Xrotation Yrotation
      JOINT LeftFoot
      {
        OFFSET 0 -41.7151 -2
        CHANNELS 6 Xposition Yposition Zposition Zrotation Xrotation Yrotation
        JOINT LeftToeBase
        {
          OFFSET 0 -7.5 12.5
          CHANNELS 6 Xposition Yposition Zposition Zrotation Xrotation Yrotation
          JOINT LeftFootToe
          {
            OFFSET 0 0 4
            CHANNELS 6 Xposition Yposition Zposition Zrotation Xrotation Yrotation
            End Site
            {
              OFFSET 0 0 0
            }
          }
        }
      }
    }
  }
  JOINT RightUpLeg
  {
    OFFSET -14 0 0
    CHANNELS 6 Xposition Yposition Zposition Zrotation Xrotation Yrotation
    JOINT RightLeg
    {
      OFFSET 0 -45.7849 -1
      CHANNELS 6 Xposition Yposition Zposition Zrotation Xrotation Yrotation
      JOINT RightFoot
      {
        OFFSET 0 -41.7151 -2
        CHANNELS 6 Xposition Yposition Zposition Zrotation Xrotation Yrotation
        JOINT RightToeBase
        {
          OFFSET 0 -7.5 12.5
          CHANNELS 6 Xposition Yposition Zposition Zrotation Xrotation Yrotation
          JOINT RightFootToe
          {
            OFFSET 0 0 4
            CHANNELS 6 Xposition Yposition Zposition Zrotation Xrotation Yrotation
            End Site
            {
              OFFSET 0 0 0
            }
          }
        }
      }
    }
  }
}
MOTION
Frames:	3
Frame Time:	0.0111111
-99.3268 94.8849 -31.2315 0.0837018 -0.12468 114.381 0 7.29544 0 -0.0862339 -1.36045 2.41018 1.42109e-14 7.29544 0 0.131629 0.676424 -2.48586 0 7.29544 0 0.0647389 0.340172 -1.24147 0 7.29544 0 0.0647229 0.340086 -1.24116 0 15.5028 -1.42109e-14 0.293435 -2.67214 -0.734206 0 9.84884 -1.42109e-14 0.935487 -1.82703 -1.74819 5 17 0 1.18411 -1.42764 -3.24661 6.75 0 0 -0.114591 -0.319292 1.6204 6.75 -2.84217e-14 0 0.282942 -3.98847 -7.90704 0 -31.2558 -2 6.45676 1.38 -9.05564 0 -24.7442 2 7.04689 -5.3688 -18.1307 -0.5 -1.5 2.65 6.77274 -0.572951 -3.3952 7.10543e-15 -3.8 3.7 0.0683684 5.68624 -0.0106244 -7.10543e-15 -3 2.7 5.78979e-05 0.348372 -0.00952238 0 -1.9 1.6 -0 -7.95139e-16 -0 0 -8.3 1.9 -4.67981 -0.937437 -0.0279943 -7.10543e-15 -4.5 -1.42109e-14 -0.272287 1.19271e-15 3.18055e-15 0 -3.4 0 -0.271275 1.59028e-15 3.18055e-15 -0.25 -2.2 0.4 -0 -7.95139e-16 -0 -7.10543e-15 -8.3 1 -7.26446 -0.830324 0.0253469 7.10543e-15 -4.65 1.42109e-14 -9.06721 -4.22417e-16 -3.18055e-15 0 -3.3 -1.42109e-14 -8.06895 7.95139e-16 -6.36111e-15 -0.5 -2.15 -0.8 -0 -7.95139e-16 -0 0 -7.75 -0.2 -10.6676 -1.55161 0.0386188 -1.42109e-14 -3.8 0 -0.00162857 1.19271e-15 -3.18055e-15 0 -3.4 -1.42109e-14 -0.00162719 0 -0 -0.75 -1.75 -1.85 -0 -7.95139e-16 -0 7.10543e-15 -7.15 -1 -11.7413 -1.69305 0.0487497 0 -3 1.42109e-14 -0.441996 -5.96354e-16 -6.36111e-15 0 -2.35 2.84217e-14 -0.440624 5.96354e-16 6.36111e-15 -5 17 0 1.54198 -1.18218 -1.67958 -6.75 -2.84217e-14 0 0.142196 -0.38091 -0.336056 -6.75 2.84217e-14 0 -7.85001 4.28393 6.58518 -7.10543e-15 -31.2558 -2 2.62344 -7.68973 1.7537 7.10543e-15 -24.7442 2 -3.45829 -6.97092 19.7722 0.5 -1.5 2.65 -4.92289 0.597435 -12.2015 7.10543e-15 -3.8 3.7 -0.13904 0.485523 -0 0 -3 2.7 -0.0133128 0.82319 0.0166935 7.10543e-15 -1.9 1.6 -1.59028e-15 2.28602e-15 -9.54166e-15 0 -8.3 1.9 1.41657 -2.65313 0.0283955 0 -4.5 0 6.98855 3.97569e-15 3.18055e-15 1.42109e-14 -3.4 -7.10543e-15 6.37782 0 -0 0.25 -2.2 0.4 -1.59028e-15 2.28602e-15 -9.54166e-15 0 -8.3 1 1.90996 -2.04818 0.0251519 1.42109e-14 -4.65 -7.10543e-15 10.209 7.95139e-16 -3.18055e-15 1.42109e-14 -3.3 0 8.96721 0 -3.18055e-15 0.5 -2.15 -0.8 -1.59028e-15 2.28602e-15 -9.54166e-15 0 -7.75 -0.2 2.63625 -0.963963 0.00144078 0 -3.8 -7.10543e-15 9.12671 1.59028e-15 -0 1.42109e-14 -3.4 0 8.1158 0 -0 0.75 -1.75 -1.85 -1.59028e-15 2.28602e-15 -9.54166e-15 0 -7.15 -1 2.92839 -0.413662 -0.0143688 0 -3 0 4.19298 -3.97569e-16 -6.36111e-15 1.42109e-14 -2.35 7.10543e-15 3.96658 1.59028e-15 -6.36111e-15 14 -1.42109e-14 0 3.35824 -1.82678 -3.38739 0 -45.7849 -1 0.00233158 3.85009 -0.247357 0 -41.7151 -2 -3.30796 -2.20706 -0.310912 0 -7.5 12.5 3.88251e-19 1.16475e-18 3.18055e-15 0 0 4 0.284586 -0.00642206 -1.92865 -14 0 0 -1.88003 -3.15573 -5.66421 0 -45.7849 -1 -0.00178803 3.84987 -0.141273 7.10543e-15 -41.7151 -2 1.70917 -0.484799 7.0478 0 -7.5 12.5 -7.76503e-19 -7.76503e-19 -0 -7.10543e-15 8.67362e-19 4 -1.25858 -0.338634 -11.8268 
-99.3293 94.8849 -31.2307 0.083697 -0.124676 114.381 0 7.29544 0 -0.0862252 -1.36063 2.41006 0 7.29544 -1.42109e-14 0.131611 0.676346 -2.48619 -1.42109e-14 7.29544 0 0.0647397 0.340148 -1.24169 1.42109e-14 7.29544 0 0.0647237 0.340062 -1.24138 0 15.5028 1.42109e-14 0.290782 -2.67124 -0.733879 0 9.84884 -1.42109e-14 0.929477 -1.82333 -1.74807 5 17 1.42109e-14 1.18389 -1.42762 -3.24563 6.75 0 0 -0.114728 -0.319355 1.61867 6.75 0 -1.42109e-14 0.283129 -3.98816 -7.90672 0 -31.2558 -2 6.45857 1.37999 -9.05548 0 -24.7442 2 7.04645 -5.36876 -18.1289 -0.5 -1.5 2.65 6.76916 -0.575179 -3.3961 0 -3.8 3.7 0.0683684 5.68617 -0.0106244 0 -3 2.7 5.78979e-05 0.348372 -0.00952238 0 -1.9 1.6 2.20695e-32 7.95139e-16 -1.59028e-15 0 -8.3 1.9 -4.68071 -0.937317 -0.0279821 0 -4.5 0 -0.272271 3.97569e-16 -3.18055e-15 7.10543e-15 -3.4 0 -0.271258 -2.38542e-15 -0 -0.25 -2.2 0.4 2.20695e-32 7.95139e-16 -1.59028e-15 0 -8.3 1 -7.26607 -0.829285 0.0254619 -7.10543e-15 -4.65 0 -9.06472 6.70898e-16 3.18055e-15 -3.55271e-15 -3.3 0 -8.06718 3.97569e-16 6.36111e-15 -0.5 -2.15 -0.8 2.20695e-32 7.95139e-16 -1.59028e-15 -7.10543e-15 -7.75 -0.2 -10.6689 -1.54981 0.0386735 0 -3.8 0 -0.00162857 3.97569e-16 6.36111e-15 -7.10543e-15 -3.4 0 -0.00162719 9.93923e-16 -0 -0.75 -1.75 -1.85 2.20695e-32 7.95139e-16 -1.59028e-15 7.10543e-15 -7.15 -1 -11.7421 -1.68958 0.0488512 0 -3 0 -0.441699 -1.98785e-15 -3.18055e-15 -7.10543e-15 -2.35 1.42109e-14 -0.440273 -3.97569e-16 3.18055e-15 -5 17 1.42109e-14 1.54189 -1.18135 -1.67924 -6.75 2.84217e-14 0 0.141248 -0.379074 -0.336728 -6.75 0 0 -7.84962 4.28343 6.58453 0 -31.2558 -2 2.6235 -7.68969 1.7558 -7.10543e-15 -24.7442 2 -3.45858 -6.97111 19.7716 0.5 -1.5 2.65 -4.92267 0.597683 -12.2032 7.10543e-15 -3.8 3.7 -0.13904 0.485523 -0 0 -3 2.7 -0.0133128 0.82319 0.0166935 0 -1.9 1.6 1.09332e-15 -1.88845e-15 6.36111e-15 -7.10543e-15 -8.3 1.9 1.41543 -2.65203 0.0283887 1.42109e-14 -4.5 -7.10543e-15 6.9919 -7.95139e-16 -3.18055e-15 1.42109e-14 -3.4 0 6.38062 -1.59028e-15 -0 0.25 -2.2 0.4 1.09332e-15 -1.88845e-15 6.36111e-15 0 -8.3 1 1.90906 -2.04838 0.0251519 -7.10543e-15 -4.65 -7.10543e-15 10.2093 -1.59028e-15 -0 0 -3.3 7.10543e-15 8.96759 4.77083e-15 9.54166e-15 0.5 -2.15 -0.8 1.09332e-15 -1.88845e-15 6.36111e-15 7.10543e-15 -7.75 -0.2 2.63576 -0.964142 0.00144078 0 -3.8 -7.10543e-15 9.12685 3.18055e-15 -9.54166e-15 -1.42109e-14 -3.4 7.10543e-15 8.11578 3.18055e-15 -3.18055e-15 0.75 -1.75 -1.85 1.09332e-15 -1.88845e-15 6.36111e-15 0 -7.15 -1 2.92772 -0.413948 -0.0143688 -1.42109e-14 -3 -7.10543e-15 4.19355 2.78299e-15 -9.54166e-15 0 -2.35 -7.10543e-15 3.9673 -7.95139e-16 6.36111e-15 14 1.42109e-14 0 3.35802 -1.82861 -3.38767 0 -45.7849 -1 0.00233253 3.85009 -0.247371 0 -41.7151 -2 -3.30788 -2.20538 -0.310566 0 -7.5 12.5 -7.76503e-19 -3.88251e-19 3.18055e-15 0 0 4 0.28462 -0.00640416 -1.92865 -14 0 1.42109e-14 -1.88026 -3.15748 -5.66452 -7.10543e-15 -45.7849 -1 -0.00178638 3.84987 -0.141297 0 -41.7151 -2 1.70906 -0.483119 7.048 -7.10543e-15 -7.5 12.5 3.88251e-19 5.82377e-19 -3.18055e-15 -7.10543e-15 0 4 -1.25861 -0.338594 -11.8268 
-99.3317 94.8849 -31.2299 0.0836923 -0.124673 114.382 0 7.29544 -1.42109e-14 -0.0862162 -1.36081 2.40994 0 7.29544 0 0.131593 0.676267 -2.48652 0 7.29544 1.42109e-14 0.0647405 0.340125 -1.24191 0 7.29544 1.42109e-14 0.0647245 0.340039 -1.2416 0 15.5028 0 0.288557 -2.67045 -0.733548 0 9.84884 1.42109e-14 0.924381 -1.81997 -1.74788 5 17 1.42109e-14 1.18366 -1.42759 -3.24459 6.75 0 1.42109e-14 -0.114858 -0.319419 1.61763 6.75 -5.68434e-14 -1.42109e-14 0.283233 -3.98787 -7.90637 0 -31.2558 -2 6.46016 1.37999 -9.05536 1.42109e-14 -24.7442 2 7.04609 -5.36879 -18.1272 -0.5 -1.5 2.65 6.76683 -0.5756 -3.39712 7.10543e-15 -3.8 3.7 0.0683684 5.68614 -0.0106244 -7.10543e-15 -3 2.7 5.78979e-05 0.348372 -0.00952238 0 -1.9 1.6 -3.18055e-15 7.95139e-16 -1.59028e-15 1.42109e-14 -8.3 1.9 -4.68503 -0.937195 -0.0279698 7.10543e-15 -4.5 0 -0.272246 -7.95139e-16 -6.36111e-15 0 -3.4 0 -0.271234 3.97569e-16 -0 -0.25 -2.2 0.4 -3.18055e-15 7.95139e-16 -1.59028e-15 0 -8.3 1 -7.27045 -0.828261 0.0255768 7.10543e-15 -4.65 1.42109e-14 -9.06217 2.73329e-16 6.36111e-15 0 -3.3 0 -8.06553 7.95139e-16 -6.36111e-15 -0.5 -2.15 -0.8 -3.18055e-15 7.95139e-16 -1.59028e-15 0 -7.75 -0.2 -10.6704 -1.54832 0.038728 0 -3.8 -1.42109e-14 -0.00162857 7.95139e-16 3.18055e-15 0 -3.4 0 -0.00162719 7.95139e-16 -0 -0.75 -1.75 -1.85 -3.18055e-15 7.95139e-16 -1.59028e-15 -7.10543e-15 -7.15 -1 -11.743 -1.68939 0.048953 7.10543e-15 -3 -1.42109e-14 -0.441398 -9.93923e-16 -6.36111e-15 0 -2.35 1.42109e-14 -0.439914 -1.19271e-15 -3.18055e-15 -5 17 1.42109e-14 1.54181 -1.18008 -1.6789 -6.75 0 0 0.1403 -0.377196 -0.3374 -6.75 0 0 -7.84923 4.2831 6.58388 7.10543e-15 -31.2558 -2 2.62358 -7.68965 1.75794 -7.10543e-15 -24.7442 2 -3.45878 -6.9712 19.7711 0.5 -1.5 2.65 -4.92245 0.597922 -12.2051 -7.10543e-15 -3.8 3.7 -0.13904 0.485523 -9.54201e-15 7.10543e-15 -3 2.7 -0.0133128 0.82319 0.0166935 -7.10543e-15 -1.9 1.6 2.98177e-16 2.48481e-15 -9.54166e-15 7.10543e-15 -8.3 1.9 1.41428 -2.65021 0.0283819 0 -4.5 0 6.99638 -7.95139e-16 -3.18055e-15 -1.42109e-14 -3.4 -7.10543e-15 6.38428 -1.59028e-15 -9.54166e-15 0.25 -2.2 0.4 2.98177e-16 2.48481e-15 -9.54166e-15 0 -8.3 1 1.90825 -2.04857 0.0251519 7.10543e-15 -4.65 0 10.2095 -2.38542e-15 3.18055e-15 0 -3.3 0 8.96793 1.59028e-15 -0 0.5 -2.15 -0.8 2.98177e-16 2.48481e-15 -9.54166e-15 0 -7.75 -0.2 2.63529 -0.964323 0.00144078 -7.10543e-15 -3.8 7.10543e-15 9.12702 1.59028e-15 -3.18055e-15 -1.42109e-14 -3.4 -7.10543e-15 8.1158 1.59028e-15 6.36111e-15 0.75 -1.75 -1.85 2.98177e-16 2.48481e-15 -9.54166e-15 0 -7.15 -1 2.92718 -0.414228 -0.0143688 0 -3 0 4.19411 0 -1.59028e-14 -1.42109e-14 -2.35 0 3.96802 -7.95139e-16 -0 14 -1.42109e-14 0 3.3578 -1.83056 -3.38795 -1.42109e-14 -45.7849 -1 0.00233347 3.85009 -0.247385 0 -41.7151 -2 -3.30781 -2.20369 -0.310221 -1.42109e-14 -7.5 12.5 3.88251e-19 -5.82377e-19 -0 0 -1.38778e-17 4 0.284655 -0.00638626 -1.92865 -14 0 0 -1.88048 -3.15917 -5.6648 7.10543e-15 -45.7849 -1 -0.00178474 3.84987 -0.141321 0 -41.7151 -2 1.70895 -0.481443 7.04818 0 -7.5 12.5 7.76503e-19 -7.76503e-19 -6.36111e-15 0 4.33681e-19 4 -1.25865 -0.338555 -11.8268 
